<?xml version="1.0" encoding="UTF-8" standalone="no"?>
<!DOCTYPE svg PUBLIC "-//W3C//DTD SVG 1.1//EN" "http://www.w3.org/Graphics/SVG/1.1/DTD/svg11.dtd">
<svg width="100%" height="100%" viewBox="0 0 825 1900" version="1.1" xmlns="http://www.w3.org/2000/svg" xmlns:xlink="http://www.w3.org/1999/xlink" xml:space="preserve" xmlns:serif="http://www.serif.com/" style="fill-rule:evenodd;clip-rule:evenodd;stroke-linejoin:round;stroke-miterlimit:1.41421;">
    <g transform="matrix(1.3269,0,0,1.33295,256.488,-213.36)">
        <g transform="matrix(1.07913,0,0,1,5.82226,0)">
            <text x="-73.575px" y="328.039px" style="font-family:'HYChangLiSongKeBenTruingW', 'HYChangLiSongKeBen(Truing)';font-size:34.982px;">御木之道，在于迭代，</text>
        </g>
        <g transform="matrix(1.07913,0,0,1,5.82226,0)">
            <text x="-73.575px" y="370.598px" style="font-family:'HYChangLiSongKeBenTruingW', 'HYChangLiSongKeBen(Truing)';font-size:34.982px;">不可计算，不分好坏；</text>
        </g>
        <g transform="matrix(1.07913,0,0,1,5.82226,0)">
            <text x="-73.575px" y="413.158px" style="font-family:'HYChangLiSongKeBenTruingW', 'HYChangLiSongKeBen(Truing)';font-size:34.982px;">允许成功，允许失败，</text>
        </g>
        <g transform="matrix(1.07913,0,0,1,5.82226,0)">
            <text x="-73.575px" y="455.717px" style="font-family:'HYChangLiSongKeBenTruingW', 'HYChangLiSongKeBen(Truing)';font-size:34.982px;">忘情忘义，爱无阻碍。</text>
        </g>
        <g transform="matrix(1.07913,0,0,1,5.82226,0)">
            <text x="-73.575px" y="540.836px" style="font-family:'HYChangLiSongKeBenTruingW', 'HYChangLiSongKeBen(Truing)';font-size:34.982px;">诸多邪念，皆梦中见，</text>
        </g>
        <g transform="matrix(1.07913,0,0,1,5.82226,0)">
            <text x="-73.575px" y="583.396px" style="font-family:'HYChangLiSongKeBenTruingW', 'HYChangLiSongKeBen(Truing)';font-size:34.982px;">知人知面，亦能知心；</text>
        </g>
        <g transform="matrix(1.07913,0,0,1,5.82226,0)">
            <text x="-73.575px" y="625.955px" style="font-family:'HYChangLiSongKeBenTruingW', 'HYChangLiSongKeBen(Truing)';font-size:34.982px;">他人之事，何乱心智，</text>
        </g>
        <g transform="matrix(1.07913,0,0,1,5.82226,0)">
            <text x="-73.575px" y="668.515px" style="font-family:'HYChangLiSongKeBenTruingW', 'HYChangLiSongKeBen(Truing)';font-size:34.982px;">恶若已生，金克木之。</text>
        </g>
        <g transform="matrix(1.07913,0,0,1,5.82226,0)">
            <text x="-73.575px" y="753.634px" style="font-family:'HYChangLiSongKeBenTruingW', 'HYChangLiSongKeBen(Truing)';font-size:34.982px;">但凡恶念，皆有条件，</text>
        </g>
        <g transform="matrix(1.07913,0,0,1,5.82226,0)">
            <text x="-73.575px" y="796.193px" style="font-family:'HYChangLiSongKeBenTruingW', 'HYChangLiSongKeBen(Truing)';font-size:34.982px;">只分黑白，不见五彩；</text>
        </g>
        <g transform="matrix(1.07913,0,0,1,5.82226,0)">
            <text x="-73.575px" y="838.752px" style="font-family:'HYChangLiSongKeBenTruingW', 'HYChangLiSongKeBen(Truing)';font-size:34.982px;">频率状态，瞬间可变，</text>
        </g>
        <g transform="matrix(1.07913,0,0,1,5.82226,0)">
            <text x="-73.575px" y="881.312px" style="font-family:'HYChangLiSongKeBenTruingW', 'HYChangLiSongKeBen(Truing)';font-size:34.982px;">爱之体验，当下习惯。</text>
        </g>
        <g transform="matrix(1.07913,0,0,1,5.82226,0)">
            <text x="-73.575px" y="966.431px" style="font-family:'HYChangLiSongKeBenTruingW', 'HYChangLiSongKeBen(Truing)';font-size:34.982px;">伺机而动，但求第二，</text>
        </g>
        <g transform="matrix(1.07913,0,0,1,5.82226,0)">
            <text x="-73.575px" y="1008.99px" style="font-family:'HYChangLiSongKeBenTruingW', 'HYChangLiSongKeBen(Truing)';font-size:34.982px;">完成即美，不拘小爱；</text>
        </g>
        <g transform="matrix(1.07913,0,0,1,5.82226,0)">
            <text x="-73.575px" y="1051.55px" style="font-family:'HYChangLiSongKeBenTruingW', 'HYChangLiSongKeBen(Truing)';font-size:34.982px;">付出得到，是爱则一，</text>
        </g>
        <g transform="matrix(1.07913,0,0,1,5.82226,0)">
            <text x="-73.575px" y="1094.11px" style="font-family:'HYChangLiSongKeBenTruingW', 'HYChangLiSongKeBen(Truing)';font-size:34.982px;">收之东隅，所向披靡。</text>
        </g>
        <g transform="matrix(1.07913,0,0,1,5.82226,0)">
            <text x="-73.575px" y="1179.23px" style="font-family:'HYChangLiSongKeBenTruingW', 'HYChangLiSongKeBen(Truing)';font-size:34.982px;">小小愿景，得意忘形，</text>
        </g>
        <g transform="matrix(1.07913,0,0,1,5.82226,0)">
            <text x="-73.575px" y="1221.79px" style="font-family:'HYChangLiSongKeBenTruingW', 'HYChangLiSongKeBen(Truing)';font-size:34.982px;">太极五行，琴瑟和鸣；</text>
        </g>
        <g transform="matrix(1.07913,0,0,1,5.82226,0)">
            <text x="-73.575px" y="1264.35px" style="font-family:'HYChangLiSongKeBenTruingW', 'HYChangLiSongKeBen(Truing)';font-size:34.982px;">踏浪而行，万木成林，</text>
        </g>
        <g transform="matrix(1.07913,0,0,1,5.82226,0)">
            <text x="-73.575px" y="1306.91px" style="font-family:'HYChangLiSongKeBenTruingW', 'HYChangLiSongKeBen(Truing)';font-size:34.982px;">爱之须臾，已是永恒。</text>
        </g>
    </g>
</svg>
