<?xml version="1.0" encoding="UTF-8" standalone="no"?>
<!DOCTYPE svg PUBLIC "-//W3C//DTD SVG 1.1//EN" "http://www.w3.org/Graphics/SVG/1.1/DTD/svg11.dtd">
<svg width="100%" height="100%" viewBox="0 0 825 1900" version="1.1" xmlns="http://www.w3.org/2000/svg" xmlns:xlink="http://www.w3.org/1999/xlink" xml:space="preserve" xmlns:serif="http://www.serif.com/" style="fill-rule:evenodd;clip-rule:evenodd;stroke-linejoin:round;stroke-miterlimit:1.41421;">
    <g transform="matrix(1.19739,0,0,1.25791,230.568,-32.3154)">
        <g transform="matrix(1.07913,0,0,1,7.50182,0)">
            <text x="-94.8px" y="402.854px" style="font-family:'HYChangLiSongKeBenTruingW', 'HYChangLiSongKeBen(Truing)';font-size:38.915px;">不要不要，重燃爱火，</text>
        </g>
        <g transform="matrix(1.07913,0,0,1,7.50182,0)">
            <text x="-94.8px" y="482.82px" style="font-family:'HYChangLiSongKeBenTruingW', 'HYChangLiSongKeBen(Truing)';font-size:38.915px;">直捣黄龙，不问因果。</text>
        </g>
        <g transform="matrix(1.07913,0,0,1,7.50182,0)">
            <text x="-94.8px" y="562.787px" style="font-family:'HYChangLiSongKeBenTruingW', 'HYChangLiSongKeBen(Truing)';font-size:38.915px;">忘我忘我，心死神活，</text>
        </g>
        <g transform="matrix(1.07913,0,0,1,7.50182,0)">
            <text x="-94.8px" y="642.754px" style="font-family:'HYChangLiSongKeBenTruingW', 'HYChangLiSongKeBen(Truing)';font-size:38.915px;">不可记忆，不可捕捉。</text>
        </g>
        <g transform="matrix(1.07913,0,0,1,7.50182,0)">
            <text x="-94.8px" y="802.688px" style="font-family:'HYChangLiSongKeBenTruingW', 'HYChangLiSongKeBen(Truing)';font-size:38.915px;">求金求金，先要有金，</text>
        </g>
        <g transform="matrix(1.07913,0,0,1,7.50182,0)">
            <text x="-94.8px" y="882.655px" style="font-family:'HYChangLiSongKeBenTruingW', 'HYChangLiSongKeBen(Truing)';font-size:38.915px;">败相仍爱，愿景秘辛。</text>
        </g>
        <g transform="matrix(1.07913,0,0,1,7.50182,0)">
            <text x="-94.8px" y="962.622px" style="font-family:'HYChangLiSongKeBenTruingW', 'HYChangLiSongKeBen(Truing)';font-size:38.915px;">等待等待，心急必乱，</text>
        </g>
        <g transform="matrix(1.07913,0,0,1,7.50182,0)">
            <text x="-94.8px" y="1042.59px" style="font-family:'HYChangLiSongKeBenTruingW', 'HYChangLiSongKeBen(Truing)';font-size:38.915px;">生火之金，不怕火炼。</text>
        </g>
    </g>
</svg>
