<?xml version="1.0" encoding="UTF-8" standalone="no"?>
<!DOCTYPE svg PUBLIC "-//W3C//DTD SVG 1.1//EN" "http://www.w3.org/Graphics/SVG/1.1/DTD/svg11.dtd">
<svg width="100%" height="100%" viewBox="0 0 825 1900" version="1.1" xmlns="http://www.w3.org/2000/svg" xmlns:xlink="http://www.w3.org/1999/xlink" xml:space="preserve" xmlns:serif="http://www.serif.com/" style="fill-rule:evenodd;clip-rule:evenodd;stroke-linejoin:round;stroke-miterlimit:1.41421;">
    <g transform="matrix(1.3272,0,0,1.3272,216.405,-311.334)">
        <g transform="matrix(1.07913,0,0,1,5.82226,0)">
            <text x="-73.575px" y="319.527px" style="font-family:'HYChangLiSongKeBenTruingW', 'HYChangLiSongKeBen(Truing)';font-size:34.982px;fill:white;">天赋大爱，御水之源，	<tspan x="346.203px " y="319.527px ">	</tspan></text>
        </g>
        <g transform="matrix(1.07913,0,0,1,5.82226,0)">
            <text x="-73.575px" y="357.83px" style="font-family:'HYChangLiSongKeBenTruingW', 'HYChangLiSongKeBen(Truing)';font-size:34.982px;fill:white;">重中之重，不可不言；</text>
        </g>
        <g transform="matrix(1.07913,0,0,1,5.82226,0)">
            <text x="-73.575px" y="396.134px" style="font-family:'HYChangLiSongKeBenTruingW', 'HYChangLiSongKeBen(Truing)';font-size:34.982px;fill:white;">刻意强迫，似强实弱，</text>
        </g>
        <g transform="matrix(1.07913,0,0,1,5.82226,0)">
            <text x="-73.575px" y="434.437px" style="font-family:'HYChangLiSongKeBenTruingW', 'HYChangLiSongKeBen(Truing)';font-size:34.982px;fill:white;">机缘巧合，忘我烈火。</text>
        </g>
        <g transform="matrix(1.07913,0,0,1,5.82226,0)">
            <text x="-73.575px" y="511.044px" style="font-family:'HYChangLiSongKeBenTruingW', 'HYChangLiSongKeBen(Truing)';font-size:34.982px;fill:white;">唯爱是图，乐意吃苦，</text>
        </g>
        <g transform="matrix(1.07913,0,0,1,5.82226,0)">
            <text x="-73.575px" y="549.348px" style="font-family:'HYChangLiSongKeBenTruingW', 'HYChangLiSongKeBen(Truing)';font-size:34.982px;fill:white;">求之不得，小爱可逐。</text>
        </g>
        <g transform="matrix(1.07913,0,0,1,5.82226,0)">
            <text x="-73.575px" y="625.955px" style="font-family:'HYChangLiSongKeBenTruingW', 'HYChangLiSongKeBen(Truing)';font-size:34.982px;fill:white;">若论阴德，允许最大，</text>
        </g>
        <g transform="matrix(1.07913,0,0,1,5.82226,0)">
            <text x="-73.575px" y="664.259px" style="font-family:'HYChangLiSongKeBenTruingW', 'HYChangLiSongKeBen(Truing)';font-size:34.982px;fill:white;">善恶美丑，来者不拒；</text>
        </g>
        <g transform="matrix(1.07913,0,0,1,5.82226,0)">
            <text x="-73.575px" y="702.562px" style="font-family:'HYChangLiSongKeBenTruingW', 'HYChangLiSongKeBen(Truing)';font-size:34.982px;fill:white;">皆是偏爱，本无好坏，</text>
        </g>
        <g transform="matrix(1.07913,0,0,1,5.82226,0)">
            <text x="-73.575px" y="740.866px" style="font-family:'HYChangLiSongKeBenTruingW', 'HYChangLiSongKeBen(Truing)';font-size:34.982px;fill:white;">忘利忘己，水到渠成。</text>
        </g>
        <g transform="matrix(1.07913,0,0,1,5.82226,0)">
            <text x="-73.575px" y="817.473px" style="font-family:'HYChangLiSongKeBenTruingW', 'HYChangLiSongKeBen(Truing)';font-size:34.982px;fill:white;">贪恶恐恨，有允偏肯，</text>
        </g>
        <g transform="matrix(1.07913,0,0,1,5.82226,0)">
            <text x="-73.575px" y="855.776px" style="font-family:'HYChangLiSongKeBenTruingW', 'HYChangLiSongKeBen(Truing)';font-size:34.982px;fill:white;">谨记四宝，濯而不妖。</text>
        </g>
        <g transform="matrix(1.07913,0,0,1,5.82226,0)">
            <text x="-73.575px" y="932.383px" style="font-family:'HYChangLiSongKeBenTruingW', 'HYChangLiSongKeBen(Truing)';font-size:34.982px;fill:white;">心小念少，爱逢目标，</text>
        </g>
        <g transform="matrix(1.07913,0,0,1,5.82226,0)">
            <text x="-73.575px" y="970.687px" style="font-family:'HYChangLiSongKeBenTruingW', 'HYChangLiSongKeBen(Truing)';font-size:34.982px;fill:white;">心得肯定，自生活力，</text>
        </g>
        <g transform="matrix(1.07913,0,0,1,5.82226,0)">
            <text x="-73.575px" y="1008.99px" style="font-family:'HYChangLiSongKeBenTruingW', 'HYChangLiSongKeBen(Truing)';font-size:34.982px;fill:white;">芝麻换瓜，步步生花，</text>
        </g>
        <g transform="matrix(1.07913,0,0,1,5.82226,0)">
            <text x="-73.575px" y="1047.29px" style="font-family:'HYChangLiSongKeBenTruingW', 'HYChangLiSongKeBen(Truing)';font-size:34.982px;fill:white;">水光相交，生生不息。</text>
        </g>
        <g transform="matrix(1.07913,0,0,1,5.82226,0)">
            <text x="-73.575px" y="1123.9px" style="font-family:'HYChangLiSongKeBenTruingW', 'HYChangLiSongKeBen(Truing)';font-size:34.982px;fill:white;">心喜自由，少说且做，</text>
        </g>
        <g transform="matrix(1.07913,0,0,1,5.82226,0)">
            <text x="-73.575px" y="1162.2px" style="font-family:'HYChangLiSongKeBenTruingW', 'HYChangLiSongKeBen(Truing)';font-size:34.982px;fill:white;">定义赋形，一气呵成。</text>
        </g>
        <g transform="matrix(1.07913,0,0,1,5.82226,0)">
            <text x="-73.575px" y="1238.81px" style="font-family:'HYChangLiSongKeBenTruingW', 'HYChangLiSongKeBen(Truing)';font-size:34.982px;fill:white;">若知天性，便知使命，</text>
        </g>
        <g transform="matrix(1.07913,0,0,1,5.82226,0)">
            <text x="-73.575px" y="1277.12px" style="font-family:'HYChangLiSongKeBenTruingW', 'HYChangLiSongKeBen(Truing)';font-size:34.982px;fill:white;">纵身飞崖，毫不犹豫；</text>
        </g>
        <g transform="matrix(1.07913,0,0,1,5.82226,0)">
            <text x="-73.575px" y="1315.42px" style="font-family:'HYChangLiSongKeBenTruingW', 'HYChangLiSongKeBen(Truing)';font-size:34.982px;fill:white;">平行世界，逆天改命，</text>
        </g>
        <g transform="matrix(1.07913,0,0,1,5.82226,0)">
            <text x="-73.575px" y="1353.72px" style="font-family:'HYChangLiSongKeBenTruingW', 'HYChangLiSongKeBen(Truing)';font-size:34.982px;fill:white;">意愿即路，无须回头。</text>
        </g>
        <g transform="matrix(1.07913,0,0,1,5.82226,0)">
            <text x="-73.575px" y="1430.33px" style="font-family:'HYChangLiSongKeBenTruingW', 'HYChangLiSongKeBen(Truing)';font-size:34.982px;fill:white;">算尽天机，不抵直觉，</text>
        </g>
        <g transform="matrix(1.07913,0,0,1,5.82226,0)">
            <text x="-73.575px" y="1468.63px" style="font-family:'HYChangLiSongKeBenTruingW', 'HYChangLiSongKeBen(Truing)';font-size:34.982px;fill:white;">灵机一动，事半功倍。</text>
        </g>
    </g>
</svg>
